# xmcd
#
# Track frame offsets:
#	150
#	11867
#	35190
#	50599
#	67038
#	83612
#	114737
#	137806
#	161810
#	178616
#	202482
#
# Disc length: 2855 seconds
#
# Revision: 1
# Processed by: cddbd v1.5.2PL0 Copyright (c) Steve Scherf et al.
# Submitted via: audiograbber 1.83.01
#
DISCID=aa0b250b
DTITLE=Dynamite Daze - Scarecrows On Rampage
DYEAR=2011
DGENRE=Blues
TTITLE0=Fat
TTITLE1=Bertram
TTITLE2=Monkey Fever
TTITLE3=Transsilvania Express
TTITLE4=Scarecrows On Rampage
TTITLE5=The Coolest
TTITLE6=Funky Turn
TTITLE7=Bucanish
TTITLE8=Welcome To The Club
TTITLE9=Evil Creek
TTITLE10=Uppertown Revenge
EXTD=YEAR: 2011
EXTT0=
EXTT1=
EXTT2=
EXTT3=
EXTT4=
EXTT5=
EXTT6=
EXTT7=
EXTT8=
EXTT9=
EXTT10=
PLAYORDER=
